<svg id="Layer_1" data-name="Layer 1" xmlns="http://www.w3.org/2000/svg" viewBox="0 0 197.22 73.26"><defs><style>.cls-1{fill:#641e40;}</style></defs><title>Re-Worked Logos</title><path class="cls-1" d="M4.61,40.48H0v-.7H14.09v.79H9.48V71.78H15.3c9,0,11.74-1.13,11.74-9.91h.79v10.7H.17v-.79H4.78V40.48Z"/><path class="cls-1" d="M46.61,39c7.83,0,14.7,7.57,14.7,17.13s-6.87,17.13-14.7,17.13-14.7-7.56-14.7-17.13S38.78,39,46.61,39Zm0,33.48c8.26,0,9.39-10.26,9.39-16.35s-1.13-16.35-9.39-16.35S37.22,50,37.22,56.13,38.35,72.48,46.61,72.48Z"/><path class="cls-1" d="M69.22,42h-.09V69.09c0,2.26.78,2.61,2.87,2.61h1.83v.78H63.91V71.7h1.57c2.17,0,2.87-.44,2.87-2.61V40.48H63.91v-.7h9.74L91.22,64h.09V43c0-1.91-.35-2.52-2.44-2.52H86.7v-.7h9.82v.79H94.44c-2.09,0-2.44.6-2.44,2.52V72.83h-.52Z"/><path class="cls-1" d="M101.91,40.48H97.48v-.7H112c12.35,0,15.83,10.18,15.83,16.35,0,10.18-6.26,16.35-15.83,16.35H97.39V71.7h4.44l.08-31.22Zm4.7,31.3h4c4.17,0,11.91-1.56,11.91-15.65,0-7.91-2.26-15.65-13.65-15.65h-2.26Z"/><path class="cls-1" d="M147.39,39c7.83,0,14.7,7.57,14.7,17.13s-6.87,17.13-14.7,17.13S132.7,65.7,132.7,56.13,139.48,39,147.39,39Zm0,33.48c8.26,0,9.4-10.26,9.4-16.35s-1.14-16.35-9.4-16.35S138,50,138,56.13,139.05,72.48,147.39,72.48Z"/><path class="cls-1" d="M169.92,42h-.09V69.09c0,2.26.78,2.61,2.87,2.61h1.82v.78h-9.91V71.7h1.57c2.17,0,2.87-.44,2.87-2.61V40.48h-4.44v-.7h9.74L191.92,64H192V43c0-1.91-.34-2.52-2.43-2.52h-2.18v-.7h9.83v.79h-2.09c-2.08,0-2.43.6-2.43,2.52V72.83h-.61Z"/><path class="cls-1" d="M35.65,1.48H31.57V.78H56.35l.52,7.92h-.78c0-5.4-3.57-7.13-8.44-7.13h-7.3v15h3.48c4.87,0,5.3-2.95,5.3-5.91h.78V23h-.78c0-3.57-.43-5.66-5.39-5.66H40.26V32.87h6.35c7.56,0,11.13-.87,11.13-8.78h.78v9.56H31.57v-.78h4.08Z"/><path class="cls-1" d="M64.35,22h.78c0,7.83,4.61,11.48,10.18,11.48,4.43,0,7.65-2.87,7.65-7,0-4.87-2.52-6.27-7.83-7.14C67.74,18.17,64.35,17,64.35,9.22,64.35,3.91,67.83.09,73,.09,77.83.09,79.65,3,81.22,3c1,0,1.22-1.13,1.3-1.74h.79V11h-.79C82.09,5.57,79.22.78,73,.78a6.46,6.46,0,0,0-6.78,6.87c0,4.18,1.57,5.13,9.31,6.52,6.78,1.22,9.56,3.4,9.56,9.48S81.83,34.26,75,34.26c-4.6,0-7.13-2.43-8.86-2.43C65,31.83,65,33,65,33.74h-.69Z"/><path class="cls-1" d="M90.18,22H91c0,7.83,4.61,11.48,10.17,11.48,4.44,0,7.65-2.87,7.65-7,0-4.87-2.52-6.27-7.82-7.14C93.65,18.17,90.18,17,90.18,9.13c0-5.3,3.47-9.13,8.69-9.13,4.78,0,6.61,2.87,8.18,2.87,1,0,1.21-1.13,1.39-1.74h.78v9.74h-.78C108,5.57,105.13.78,98.87.78a6.46,6.46,0,0,0-6.78,6.87c0,4.18,1.56,5.13,9.3,6.52,6.79,1.22,9.57,3.4,9.57,9.48s-3.39,10.61-10.09,10.61c-4.61,0-7.13-2.43-8.87-2.43-1.13,0-1.13,1.13-1.13,1.91h-.78V22Z"/><path class="cls-1" d="M118.87,1.48h-4.26V.78h13.22v.79h-4.26V32.78h4.26v.79H114.61v-.79h4.26Z"/><path class="cls-1" d="M156.79,11.39H156C156,6,151.48.78,145.74.78c-8.26,0-9.39,10.26-9.39,16.35s1.13,16.35,9.39,16.35c5.83,0,10.26-5.74,10.26-11.57h.79V33H156c0-1-.43-2.35-1.56-2.35-1.39,0-3.83,3.65-8.61,3.65-7.83,0-14.7-7.56-14.7-17.13S138,0,145.83,0c4.78,0,6.78,3.39,8.52,3.39,1.3,0,1.74-.87,1.74-2h.78v10Z"/><path class="cls-1" d="M176.35,22.87h-9.91l-1.92,5.83a9.93,9.93,0,0,0-.69,2.87c0,.6.52,1.13,2.09,1.13h2.43v.78h-9.56V32.7h1.47c1.48,0,2.09-.18,3-2.79L173.05,0h.52l11.3,32.78h3.83v.79H175.05v-.79h4.52Zm-5-14.78h-.09L166.7,22.17h9.48Z"/><path class="cls-1" d="M13.83.78v.79h6.08V33.74c0,2.09-2.17,2.61-4.87,2.61-2.08,0-3.3-.61-3.3-1.22,0-.87,2.26-.52,2.26-2.52,0-1.48-.52-2.78-2.09-2.78a3.45,3.45,0,0,0-3.39,3.39c0,2.08,2.26,3.91,6.61,3.91C21,37.13,25,33.91,25,28.7V1.48h4.69V.78Z"/></svg>